<?xml version="1.0" standalone="no"?>
<!DOCTYPE svg PUBLIC "-//W3C//DTD SVG 20010904//EN"
 "http://www.w3.org/TR/2001/REC-SVG-20010904/DTD/svg10.dtd">
<svg version="1.0" xmlns="http://www.w3.org/2000/svg"
 width="300.000000pt" height="300.000000pt" viewBox="0 0 300.000000 300.000000"
 preserveAspectRatio="xMidYMid meet">
<metadata>
Created by potrace 1.10, written by Peter Selinger 2001-2011
</metadata>
<g transform="translate(0.000000,300.000000) scale(0.100000,-0.100000)"
fill="#1aa0b9" stroke="none">
<path d="M1265 2414 c-130 -19 -193 -37 -243 -71 -67 -46 -132 -119 -132 -149
0 -12 -16 -64 -36 -116 -34 -87 -36 -97 -27 -151 17 -107 0 -137 -60 -105 -20
10 -21 10 -9 -5 8 -9 22 -19 33 -22 10 -4 19 -10 19 -14 0 -4 -31 -42 -70 -85
-91 -102 -92 -117 -6 -156 l65 -29 -9 -32 c-5 -17 -16 -39 -24 -48 -23 -25 4
-61 46 -61 l31 0 -27 -21 c-32 -25 -32 -36 -5 -65 22 -24 29 -78 15 -120 -9
-29 35 -71 83 -79 24 -4 61 0 97 10 33 8 95 18 139 22 l81 6 52 -76 c93 -135
151 -290 152 -404 0 -29 2 -53 4 -53 2 0 116 85 254 188 l251 189 -45 44
c-107 104 -187 224 -205 308 -10 49 -10 55 7 64 10 6 37 27 60 49 66 60 82 51
54 -32 -47 -136 -2 -248 137 -337 65 -42 75 -42 36 0 -28 29 -63 86 -63 102 0
3 21 -8 47 -26 106 -73 235 -91 323 -44 39 21 42 24 20 25 -54 1 -68 31 -79
162 -11 141 -48 213 -143 272 -21 14 -40 16 -100 10 -103 -9 -107 -2 -60 111
34 84 37 97 37 195 0 123 -23 202 -84 298 -110 169 -235 235 -466 245 -66 3
-133 3 -150 1z m290 -39 c174 -45 295 -158 359 -333 37 -103 37 -232 0 -329
-51 -135 -50 -130 -23 -159 23 -25 27 -25 96 -19 63 6 77 4 106 -14 69 -42
107 -117 113 -224 7 -118 12 -145 35 -166 28 -26 13 -33 -69 -33 -72 -1 -125
16 -201 64 -34 21 -48 25 -58 16 -7 -6 -12 -17 -11 -24 6 -30 -19 -14 -49 30
-29 43 -33 56 -33 116 0 39 7 84 16 105 13 32 13 42 3 62 -12 22 -53 33 -61
15 -1 -4 -23 -23 -48 -42 -60 -46 -69 -59 -69 -95 -1 -71 87 -221 183 -315 25
-24 46 -50 46 -56 0 -11 -63 -66 -120 -104 -12 -8 -54 -40 -94 -70 -90 -70
-215 -160 -221 -160 -3 0 -5 17 -5 38 0 94 -79 284 -167 402 l-49 65 -59 -2
c-73 -2 -144 -12 -167 -24 -25 -13 -99 -11 -128 4 -23 12 -25 18 -22 70 3 45
-1 64 -18 92 -21 34 -21 37 -5 55 15 16 15 22 5 35 -7 8 -19 15 -27 15 -18 0
-28 27 -15 43 6 6 13 28 17 48 6 32 3 38 -22 55 -15 10 -45 26 -66 36 -45 21
-44 25 31 109 28 30 62 77 77 103 24 43 26 52 19 129 -6 76 -4 88 25 162 17
44 31 92 31 107 0 20 16 43 62 88 95 92 173 116 398 119 85 1 144 -4 185 -14z"/>
<path d="M1363 2280 c-24 -11 -43 -17 -43 -14 0 12 -94 -64 -127 -101 -49 -58
-48 -55 -77 -127 -94 -237 69 -512 324 -545 88 -11 155 -1 231 35 143 69 229
207 229 366 0 164 -81 294 -228 367 -61 30 -76 33 -167 35 -80 2 -109 -1 -142
-16z m232 -15 c121 -31 228 -133 265 -254 100 -319 -223 -604 -525 -462 -241
113 -297 434 -108 618 102 99 231 133 368 98z"/>
<path d="M1480 1913 c-24 -71 -45 -133 -47 -139 -4 -11 26 -29 33 -21 11 10
100 277 94 277 -5 0 -15 2 -22 5 -10 4 -26 -29 -58 -122z"/>
<path d="M1270 1980 c-82 -46 -85 -49 -88 -86 l-3 -39 88 -45 c48 -24 91 -46
96 -48 4 -2 7 12 7 31 0 33 -4 38 -59 68 l-60 33 57 31 c51 29 57 35 60 68 2
21 0 37 -5 36 -4 0 -46 -22 -93 -49z m36 -24 c-74 -45 -85 -76 -33 -102 17
-10 26 -19 20 -21 -7 -3 -30 5 -51 17 -32 18 -38 26 -34 46 3 15 17 30 38 40
19 9 36 20 39 24 2 3 12 7 22 7 16 0 16 -1 -1 -11z m29 -144 c-3 -3 -11 0 -18
7 -9 10 -8 11 6 5 10 -3 15 -9 12 -12z"/>
<path d="M1610 1993 c0 -37 2 -40 56 -66 30 -15 53 -31 50 -35 -3 -4 -27 -19
-55 -32 -48 -22 -51 -25 -51 -62 l0 -38 98 49 c94 47 97 50 98 83 0 34 -2 36
-98 87 l-98 52 0 -38z m111 -51 c77 -38 76 -59 -1 -100 -79 -41 -96 -41 -34 1
65 43 64 63 -6 105 -63 39 -40 35 41 -6z"/>
</g>
</svg>
